# xmcd
#
# Track frame offsets: 
#        150
#        26773
#        45088
#        70403
#        89113
#        117793
#        136437
#        162080
#        191573
#
# Disc length: 2900 seconds
#
# Revision: 2
# Processed by: cddbd v1.5.2PL0 Copyright (c) Steve Scherf et al.
# Submitted via: ExactAudioCopyFreeDBPlugin 1.0
#
DISCID=770b5209
DTITLE=T.S. Monk - Human
DYEAR=1982
DGENRE=Funk
TTITLE0=Fantasy
TTITLE1=A Simple Misunderstanding
TTITLE2=I'll Get Over You Somehow
TTITLE3=Play Side Two
TTITLE4=Life Is What You Make It
TTITLE5=Stand
TTITLE6=Human
TTITLE7=Fantasy (Paul Simpson 2009 Extended Re-Edit)
TTITLE8=Candidate For Love (John Morales 2009 Reconstruction)
EXTD=
EXTT0=
EXTT1=
EXTT2=
EXTT3=
EXTT4=
EXTT5=
EXTT6=
EXTT7=
EXTT8=
PLAYORDER=
